<?xml version="1.0" encoding="UTF-8"?>
<svg width="1200" height="630" viewBox="0 0 1200 630" xmlns="http://www.w3.org/2000/svg">
  <defs>
    <linearGradient id="bg" x1="0%" y1="0%" x2="100%" y2="100%">
      <stop offset="0%" stop-color="#082f49"/>
      <stop offset="50%" stop-color="#0f172a"/>
      <stop offset="100%" stop-color="#082f49"/>
    </linearGradient>
    <linearGradient id="sky" x1="0%" y1="0%" x2="100%" y2="100%">
      <stop offset="0%" stop-color="#38bdf8"/>
      <stop offset="100%" stop-color="#0ea5e9"/>
    </linearGradient>
    <filter id="glow"><feGaussianBlur stdDeviation="5"/></filter>
  </defs>
  <rect width="1200" height="630" fill="url(#bg)"/>
  <circle cx="1000" cy="120" r="180" fill="#38bdf8" opacity="0.18" filter="url(#glow)"/>
  <!-- Calendar icon -->
  <g transform="translate(80, 220)">
    <rect x="0" y="40" width="180" height="180" rx="16" fill="none" stroke="#38bdf8" stroke-width="4"/>
    <rect x="0" y="40" width="180" height="50" rx="16" fill="#0ea5e9"/>
    <line x1="50" y1="20" x2="50" y2="60" stroke="#0ea5e9" stroke-width="6" stroke-linecap="round"/>
    <line x1="130" y1="20" x2="130" y2="60" stroke="#0ea5e9" stroke-width="6" stroke-linecap="round"/>
    <circle cx="60" cy="120" r="6" fill="#38bdf8"/>
    <circle cx="90" cy="120" r="6" fill="#38bdf8"/>
    <circle cx="120" cy="120" r="10" fill="#fbbf24"/>
    <circle cx="60" cy="160" r="6" fill="#38bdf8"/>
    <circle cx="90" cy="160" r="6" fill="#38bdf8"/>
    <circle cx="120" cy="160" r="6" fill="#38bdf8"/>
  </g>
  <text x="80" y="160" font-family="Georgia, serif" font-size="28" fill="#38bdf8" letter-spacing="6">CÍRCULOS AKASHA</text>
  <text x="320" y="320" font-family="Georgia, serif" font-size="72" font-weight="700" fill="url(#sky)">Workshops,</text>
  <text x="320" y="395" font-family="Georgia, serif" font-size="72" font-weight="700" fill="url(#sky)">meditações</text>
  <text x="320" y="470" font-family="system-ui, sans-serif" font-size="26" fill="#cbd5e1">Rodas de conversa online · RSVP aberto</text>
  <text x="80" y="555" font-family="system-ui, sans-serif" font-size="20" fill="#94a3b8">cabaladoscaminhos.com/events</text>
</svg>